<svg width="219.2" height="75.65" viewBox="0 0 219.2 75.65" xmlns="http://www.w3.org/2000/svg"><g id="svgGroup" stroke-linecap="round" fill-rule="evenodd" font-size="9pt" stroke="#000" stroke-width="0.25mm" fill="#000" style="stroke:#000;stroke-width:0.25mm;fill:#000"><path d="M 60 2 L 73.7 2 L 44.5 74.85 L 29.2 74.85 L 0 2 L 13.6 2 A 7.712 7.712 0 0 1 15.071 2.132 Q 15.963 2.306 16.666 2.706 A 4.39 4.39 0 0 1 17.15 3.025 Q 18.5 4.05 19.2 5.65 L 33.3 44.65 A 76.467 76.467 0 0 1 34.287 47.319 A 95.227 95.227 0 0 1 35.25 50.225 A 122.732 122.732 0 0 1 36.619 54.917 A 136.694 136.694 0 0 1 37.05 56.55 A 91.084 91.084 0 0 1 38.409 50.986 A 82.156 82.156 0 0 1 38.625 50.225 A 69.489 69.489 0 0 1 39.738 46.715 A 56.326 56.326 0 0 1 40.5 44.65 L 54.5 5.65 A 5.439 5.439 0 0 1 55.495 4.046 A 7.419 7.419 0 0 1 56.475 3.125 A 5.173 5.173 0 0 1 58.932 2.079 A 6.943 6.943 0 0 1 60 2 Z M 185.2 0 L 185.2 28.5 Q 188.2 25.65 191.775 23.925 A 17.469 17.469 0 0 1 197.864 22.283 A 21.163 21.163 0 0 1 199.75 22.2 Q 204.15 22.2 207.75 24 Q 211.35 25.8 213.9 29.125 A 22.175 22.175 0 0 1 216.629 33.818 A 28.388 28.388 0 0 1 217.825 37.15 A 33.428 33.428 0 0 1 218.937 42.786 A 43.296 43.296 0 0 1 219.2 47.65 A 42.929 42.929 0 0 1 218.721 54.197 A 33.963 33.963 0 0 1 217.6 59.1 Q 216 64.25 213.075 67.925 Q 210.15 71.6 206.1 73.625 Q 202.05 75.65 197.15 75.65 Q 194.8 75.65 192.95 75.2 A 14.942 14.942 0 0 1 190.344 74.314 A 13.339 13.339 0 0 1 189.55 73.925 Q 188 73.1 186.725 71.95 Q 185.45 70.8 184.25 69.45 L 183.7 72.05 A 7.444 7.444 0 0 1 183.694 72.075 Q 183.293 73.655 182.4 74.25 A 3.287 3.287 0 0 1 181.429 74.679 Q 180.996 74.797 180.483 74.833 A 6.787 6.787 0 0 1 180 74.85 L 169.7 74.85 L 169.7 0 L 185.2 0 Z M 120.3 51.7 L 90.4 51.7 A 24.068 24.068 0 0 0 91.061 55.244 Q 92.1 59.068 94.35 61.125 A 11.006 11.006 0 0 0 100.155 63.861 A 15.269 15.269 0 0 0 102.6 64.05 Q 104.899 64.05 106.655 63.579 A 10.465 10.465 0 0 0 107.25 63.4 Q 109.2 62.75 110.725 61.95 Q 112.25 61.15 113.525 60.5 Q 114.8 59.85 116.2 59.85 A 4.029 4.029 0 0 1 117.366 60.01 A 3.015 3.015 0 0 1 119 61.2 L 123.5 66.75 A 24.499 24.499 0 0 1 120.271 69.853 A 20.847 20.847 0 0 1 118.325 71.225 A 27.032 27.032 0 0 1 112.99 73.8 A 25.127 25.127 0 0 1 112.625 73.925 Q 109.7 74.9 106.775 75.275 A 46.161 46.161 0 0 1 102.883 75.613 A 39.335 39.335 0 0 1 101.2 75.65 A 29.662 29.662 0 0 1 92.828 74.489 A 27.415 27.415 0 0 1 90.975 73.875 Q 86.2 72.1 82.625 68.6 A 23.818 23.818 0 0 1 78.106 62.394 A 29.016 29.016 0 0 1 76.975 59.9 Q 74.915 54.738 74.9 47.901 A 45.811 45.811 0 0 1 74.9 47.8 Q 74.9 42.6 76.675 37.95 Q 78.45 33.3 81.775 29.8 Q 85.1 26.3 89.825 24.25 A 24.646 24.646 0 0 1 96.554 22.442 A 31.199 31.199 0 0 1 100.5 22.2 A 28.848 28.848 0 0 1 106.307 22.764 A 24.152 24.152 0 0 1 109.925 23.8 A 20.57 20.57 0 0 1 116.886 28.074 A 19.947 19.947 0 0 1 117.275 28.45 A 20.637 20.637 0 0 1 121.381 34.314 A 24.541 24.541 0 0 1 122.075 35.925 A 24.903 24.903 0 0 1 123.537 41.754 A 32.282 32.282 0 0 1 123.8 45.95 A 34.109 34.109 0 0 1 123.785 46.98 Q 123.753 48.044 123.65 48.8 Q 123.543 49.584 123.309 50.14 A 3.015 3.015 0 0 1 123.1 50.55 A 2.204 2.204 0 0 1 122.546 51.168 A 2.051 2.051 0 0 1 122.025 51.45 A 3.545 3.545 0 0 1 121.44 51.607 Q 121.143 51.662 120.797 51.685 A 7.71 7.71 0 0 1 120.3 51.7 Z M 145.25 26.65 L 146.05 31 A 26.002 26.002 0 0 1 148.417 27.511 A 18.931 18.931 0 0 1 151.575 24.4 Q 154.7 22 158.75 22 Q 162.25 22 164.45 23.65 L 163.45 35.05 A 4.276 4.276 0 0 1 163.284 35.613 Q 163.038 36.263 162.625 36.55 Q 162.05 36.95 161.05 36.95 A 8.452 8.452 0 0 1 160.776 36.945 Q 160.457 36.935 160.029 36.902 A 27.624 27.624 0 0 1 160 36.9 A 44.011 44.011 0 0 1 158.997 36.811 A 49.354 49.354 0 0 1 158.65 36.775 Q 157.95 36.7 157.225 36.625 A 14.98 14.98 0 0 0 156.531 36.569 A 11.189 11.189 0 0 0 155.9 36.55 A 10.424 10.424 0 0 0 153.634 36.782 Q 151.772 37.197 150.475 38.35 Q 148.608 40.009 147.273 42.859 A 20.79 20.79 0 0 0 147.05 43.35 L 147.05 74.85 L 131.55 74.85 L 131.55 23 L 140.75 23 Q 141.619 23 142.274 23.114 A 5.141 5.141 0 0 1 142.675 23.2 A 3.885 3.885 0 0 1 143.377 23.451 A 2.989 2.989 0 0 1 143.975 23.825 A 2.567 2.567 0 0 1 144.643 24.657 A 3.17 3.17 0 0 1 144.775 24.95 A 7.754 7.754 0 0 1 144.994 25.594 Q 145.095 25.937 145.183 26.333 A 14.687 14.687 0 0 1 145.25 26.65 Z M 185.2 38.75 L 185.2 60.75 A 11.734 11.734 0 0 0 187.01 62.364 A 9.153 9.153 0 0 0 189 63.45 Q 191.05 64.25 193.15 64.25 A 10.238 10.238 0 0 0 196.006 63.861 A 9.201 9.201 0 0 0 197.2 63.425 Q 199.05 62.6 200.375 60.725 Q 201.465 59.182 202.166 56.826 A 21.793 21.793 0 0 0 202.45 55.775 Q 203.021 53.436 203.157 50.272 A 48.111 48.111 0 0 0 203.2 48.2 A 44.465 44.465 0 0 0 203.119 45.44 Q 203.035 44.089 202.863 42.917 A 21.913 21.913 0 0 0 202.625 41.575 A 17.346 17.346 0 0 0 202.092 39.599 Q 201.761 38.621 201.334 37.818 A 9.098 9.098 0 0 0 200.925 37.125 A 7.331 7.331 0 0 0 199.576 35.561 A 6.206 6.206 0 0 0 198.125 34.625 A 8.318 8.318 0 0 0 195.73 33.943 A 10.689 10.689 0 0 0 194.3 33.85 A 10.959 10.959 0 0 0 191.793 34.125 A 8.568 8.568 0 0 0 189.35 35.1 A 13.921 13.921 0 0 0 187.392 36.525 Q 186.496 37.297 185.609 38.283 A 24.392 24.392 0 0 0 185.2 38.75 Z M 90.6 42.7 L 109.9 42.7 Q 109.9 40.85 109.425 39.1 Q 108.95 37.35 107.875 35.975 Q 106.8 34.6 105.05 33.75 Q 103.3 32.9 100.8 32.9 A 12.345 12.345 0 0 0 97.941 33.212 A 8.233 8.233 0 0 0 93.9 35.425 A 10.446 10.446 0 0 0 91.851 38.45 Q 91.244 39.771 90.863 41.389 A 20.839 20.839 0 0 0 90.6 42.7 Z" vector-effect="non-scaling-stroke"/></g></svg>